<?xml version="1.0" encoding="utf-8"?>
<!-- Generator: Adobe Illustrator 16.0.2, SVG Export Plug-In . SVG Version: 6.00 Build 0)  -->
<!DOCTYPE svg PUBLIC "-//W3C//DTD SVG 1.1//EN" "http://www.w3.org/Graphics/SVG/1.1/DTD/svg11.dtd">
<svg version="1.1"
	 id="svg831" inkscape:export-ydpi="576" inkscape:export-xdpi="576" sodipodi:docname="22 - Carrot.svg" inkscape:version="1.0 (4035a4fb49, 2020-05-01)" xmlns:dc="http://purl.org/dc/elements/1.1/" xmlns:cc="http://creativecommons.org/ns#" xmlns:rdf="http://www.w3.org/1999/02/22-rdf-syntax-ns#" xmlns:svg="http://www.w3.org/2000/svg" xmlns:sodipodi="http://sodipodi.sourceforge.net/DTD/sodipodi-0.dtd" xmlns:inkscape="http://www.inkscape.org/namespaces/inkscape" inkscape:export-filename="E:\Project\27-3-2022\4 - Icon-Icons\016 - Vegetables\Send\3 - Flat\22 - Carrot.png"
	 xmlns="http://www.w3.org/2000/svg" xmlns:xlink="http://www.w3.org/1999/xlink" x="0px" y="0px" width="512px" height="512px"
	 viewBox="0 0 512 512" enable-background="new 0 0 512 512" xml:space="preserve">
<sodipodi:namedview  id="base" units="pt" showgrid="false" inkscape:cy="42.666667" pagecolor="#ffffff" inkscape:cx="30.841944" inkscape:zoom="4.989546" borderopacity="1.0" bordercolor="#666666" inkscape:document-rotation="0" inkscape:snap-smooth-nodes="true" inkscape:snap-intersection-paths="true" inkscape:pagecheckerboard="true" inkscape:window-maximized="1" inkscape:snap-global="true" inkscape:snap-nodes="false" inkscape:bbox-nodes="true" inkscape:snap-bbox="true" inkscape:snap-midpoints="true" inkscape:object-paths="true" inkscape:showpageshadow="false" inkscape:window-y="-8" inkscape:window-x="-8" inkscape:window-height="716" inkscape:window-width="1366" inkscape:current-layer="layer1" inkscape:document-units="pt" inkscape:pageshadow="2" inkscape:pageopacity="0.0" showguides="false">
	<inkscape:grid  id="grid1378" type="xygrid"></inkscape:grid>
	<sodipodi:guide  id="guide1380" inkscape:locked="false" orientation="78.000048,0" position="0.97013831,21.607643">
		</sodipodi:guide>
	<sodipodi:guide  id="guide1382" inkscape:locked="false" orientation="0,78.000005" position="0.97013831,0.97013129">
		</sodipodi:guide>
	<sodipodi:guide  id="guide1384" inkscape:locked="false" orientation="-78.000048,0" position="21.607639,0.97013129">
		</sodipodi:guide>
	<sodipodi:guide  id="guide1386" inkscape:locked="false" orientation="0,-78.000005" position="21.607639,21.607643">
		</sodipodi:guide>
</sodipodi:namedview>
<g id="layer1" transform="translate(0,-274.42223)" inkscape:groupmode="layer" inkscape:label="Icon">
	<g id="g1566" transform="matrix(1.2547981,0,0,1.2547981,-37.609683,-152.89002)">
		<path id="path1683" sodipodi:nodetypes="ccccsccscccscccc" fill="#50B86B" d="M368.4,480.9c-1.3-5.2-2.2-10.8-5-14.8
			c-3.4-4.9-8.3-8.8-14.3-9.9v0c-9.6-1.8-18.4,3.7-24.9,11.7c-6.5,8-11.4,19.1-13.7,31.8c-0.7,3.7-0.7,7.4-0.5,10.9
			c-1,14.4,5.5,25.9,13.5,35.1c8,9.2,17.5,16.9,24.2,24.9c0.4,0.5,0.9,0.9,1.4,1.2c9.1,5.9,22.3,12.4,37.1,11
			c12.9-1.1,24.4-4.9,32.9-10.6c8.6-5.7,14.9-14,14-23.7c-0.6-6.9-4.9-12.6-10.5-16.7c-3.3-2.4-8.1-3.4-12.4-4.8L368.4,480.9z"/>
		<path id="path1689" sodipodi:nodetypes="cscscssscccccscccc" fill="#50B86B" d="M237.3,390.5c-2.2-3.2-4.1-7-6.9-9.2
			c-4.9-4-11.1-6.4-17.5-5.2c-8.9,1.6-14.8,9.3-17.7,18.2c-2.9,8.9-3.5,19.9-1.4,31.4c0.3,1.7,0.9,3.5,1.8,6.3
			c0.9,2.8,2,6.2,3.4,9.6c1.4,3.4,2.9,6.8,4.8,9.8c1.8,3,3.4,6.2,8.5,7.3l-1-0.3l36.8,15.6c0.4,0.1,0.7,0.3,1.1,0.3
			c9.7,2.2,23.3,3.6,35.8-2.5c10.5-5.1,19-12,24.5-19.7c5.5-7.7,8.2-16.9,4.3-25c-2.8-5.9-8.5-9.4-14.7-11
			c-3.3-0.8-7.6,0.4-11.5,0.6L237.3,390.5z"/>
		<path id="path1695" sodipodi:nodetypes="ccccsccccccssscc" fill="#50B86B" d="M57.7,415.5c-2.3-0.1-4.7-1-7-0.5
			c-5.5,1.4-10.2,5.2-13.9,10.7c-0.2,0.2-0.3,0.5-0.5,0.8c-3.5,7.3-1,15.6,3.7,22.2c4.8,6.6,12.1,12.5,21.2,16.9
			c10.9,5.3,22.6,4,30.9,2.1c0.5-0.1,1-0.3,1.5-0.5l28.2-14.4c0.5-0.2,0.9-0.5,1.3-0.9c6.4-5.6,14.3-14.3,16.5-26.3
			c1.8-9.9,1.3-19.3-1.3-27.1c-2.6-7.7-7.7-14.6-15.8-16c-5.7-1-11.2,1.1-15.5,4.5c-2.2,1.7-3.6,4.5-5.4,6.8L57.7,415.5z"/>
		<path id="path1524" fill="#349951" d="M108.3,386.3c-0.4,0.3-0.8,0.5-1.2,0.8c-2.2,1.7-3.6,4.5-5.4,6.8l-44,21.7
			c-2.3-0.1-4.6-1.1-6.9-0.5c-1.1,0.3-2.1,0.7-3.1,1.2c2,7.3,4.9,14.9,8.8,22.4c2.3,4.6,5.1,8.8,8.1,12.5c0.2,0.2,0.4,0.5,0.6,0.7
			c0.2,0.2,8.3,9.8,19.7,17.2c2.6-0.3,5.2-0.7,7.4-1.3c0.5-0.1,1-0.3,1.5-0.5l28.2-14.4c0.5-0.2,0.9-0.5,1.3-0.9
			c1.8-1.6,3.7-3.5,5.6-5.6c0.4-11.5-0.8-26.2-8.1-40.5C117,398.6,112.8,392.1,108.3,386.3z"/>
		<path id="path1701" fill="#50B86B" d="M77.3,372.2c-4.5-1.4-9.5-1.6-13.9,0.6c0,0,0,0,0,0c-4.4,2.2-7.2,6.4-8.7,10.8
			c-1.5,4.5-1.8,9.4-1.4,14.8c0.7,10.8,4.5,23.4,11,36.1c2,4,4.4,7.7,7.1,10.9c0.1,0.1,0.2,0.2,0.3,0.3c0,0,11.6,13.3,24,19.1
			c2.2,1,4.8,0.7,6.7-0.8l15.3-12.2c1.4-1.2,2.3-2.9,2.4-4.7c0.5-10.8-0.6-24.5-7.2-37.4c-6.5-12.7-14.5-23.2-22.8-30.1
			C85.9,376.3,81.7,373.7,77.3,372.2L77.3,372.2z"/>
		<path id="path1707" fill="#FF7247" d="M129.4,443.1c-9.5-3.6-20.1-3.5-29.6,1.3c-18.9,9.7-25.2,34.2-15,54.2
			c4.6,8.9,21.6,36,41.1,63.9l24,41.7c1.8,3.1,5.7,4.1,8.8,2.3c0.9-0.5,1.7-1.3,2.3-2.2l25.6-42.1c1-1.6,1.2-3.6,0.6-5.4l-14-41.5
			c0,0,0-0.1,0-0.1c-8.9-24.2-17-44-20.6-51.1C147.3,454,138.9,446.7,129.4,443.1L129.4,443.1z"/>
		<path id="path2377" fill="#F76336" d="M114.6,440.5c-5,0.2-10,1.4-14.8,3.8c-11.6,5.9-18.5,17.5-19.6,30.2c2-1.7,4.3-3.3,6.8-4.6
			c9.5-4.8,20.1-4.9,29.6-1.3c9.5,3.6,17.9,11,23,21c3.6,7.1,11.7,26.9,20.6,51.1c0,0,0,0.1,0,0.1l14,41.4l12.3-20.2
			c1-1.6,1.2-3.6,0.6-5.4l-14-41.5c0,0,0-0.1,0-0.1c-8.9-24.2-17-44.1-20.6-51.1c-5.1-10-13.5-17.3-23-21
			C124.6,441.2,119.6,440.4,114.6,440.5L114.6,440.5z"/>
		<path id="path2382" sodipodi:nodetypes="cccccccc" fill="#F76336" d="M173.1,515.1c-4.3-11.6-8.3-22-11.8-30.7l0,0l-35.3,78
			l21.1,36.7l10.3,7.9l28.1-55.3L173.1,515.1z"/>
		<path id="path1711" fill="#FFA185" d="M156.4,472.6l-30.5,15.5c-3.1,1.6-4.4,5.5-2.8,8.6c1.6,3.2,5.5,4.4,8.6,2.8c0,0,0,0,0,0
			l29.5-15.1C159.5,480,157.8,475.9,156.4,472.6z M139.7,516c-0.1,0-0.2,0-0.3,0c-0.9,0-1.8,0.3-2.7,0.7l-31,15.8
			c2.3,3.6,4.5,7,7.1,10.8l29.7-15.1c3.2-1.6,4.4-5.4,2.8-8.6c0,0,0,0,0,0C144.3,517.4,142.1,516,139.7,516L139.7,516z"/>
		<path id="path1530" fill="#349951" d="M231.2,382c-4.9,6.4-9.4,13.7-13.5,21.7c-8.6,16.9-9.8,34.5-9.2,48c0.1,2.2,0.8,4.3,1.8,6.2
			c0.6,0.3,1.2,0.6,2,0.8l-1-0.3l36.8,15.6c0.4,0.1,0.7,0.3,1.1,0.3c1.9,0.4,4,0.8,6.2,1.1c11.3-7.5,24.7-18.8,33.2-35.7
			c4.1-8,7.3-16,9.6-23.8c-3.1-0.4-7,0.5-10.5,0.7l-50.3-26.2C235.3,387.6,233.6,384.3,231.2,382L231.2,382z"/>
		<path id="path1721" sodipodi:nodetypes="csccccccssscc" fill="#50B86B" d="M266.7,363.6c-5.1,1.6-10,4.7-14.8,8.8
			c-9.6,8.1-19,20.4-26.6,35.3c-7.6,15.1-8.9,31.1-8.3,43.7c0.1,2.3,1.5,4.4,3.5,5.4l23.5,11.9c2.1,1,4.5,0.9,6.4-0.4
			c10.5-7,22.7-17.5,30.3-32.5c7.6-15,11.9-29.8,12.8-42.3c0.4-6.3,0-12-1.7-17.1c-1.7-5.1-4.9-9.7-9.7-12.1
			C277.3,361.8,271.8,362,266.7,363.6L266.7,363.6z"/>
		<path id="path1725" fill="#349951" d="M247.5,426.3c-2.4,0-4.5,1.4-5.6,3.5l-11.1,22c-1.6,3.2-0.3,7,2.8,8.6c0,0,0,0,0,0
			c3.1,1.6,7,0.4,8.6-2.8l11.1-22c1.6-3.2,0.3-7-2.8-8.6c0,0,0,0,0,0C249.6,426.5,248.5,426.2,247.5,426.3L247.5,426.3z"/>
		<path id="path1731" fill="#FF7247" d="M205.3,447.6c-11,4.2-20.7,12.7-26.5,24.3c-2.9,5.8-8.5,19.1-15.3,36.7
			c-6.8,17.6-14.7,39.3-21.7,60.7c-7,21.4-13.1,42.4-16.4,59.1c-1.6,8.3-2.6,15.5-2.5,21.5c0.1,3,0.3,5.7,1.2,8.3
			c0.9,2.6,2.7,5.5,5.7,7.1c3.1,1.6,6.4,1.3,9,0.4c2.7-0.8,5-2.2,7.5-3.9c4.9-3.5,10.2-8.5,15.9-14.7c11.5-12.5,24.8-29.9,37.9-48.2
			c13.1-18.3,25.9-37.5,36.1-53.4c10.2-15.9,17.6-28.3,20.5-34.1c11.7-23.2,4.4-51.3-17.4-62.4C228.5,443.4,216.3,443.3,205.3,447.6
			L205.3,447.6z"/>
		<path id="path2367" fill="#F76336" d="M222.4,444.6c-4.8-0.1-9.6,0.6-14.3,2.1c1.9,0.6,3.8,1.3,5.6,2.3
			c21.8,11,29.1,39.2,17.4,62.4c-2.9,5.8-10.3,18.2-20.5,34.1c-10.2,15.9-23,35.1-36.1,53.4c-13.1,18.3-26.4,35.7-37.9,48.2
			c-4.3,4.7-8.4,8.7-12.2,11.9c1,2.4,2.6,4.9,5.4,6.4c3.1,1.6,6.4,1.3,9,0.4c2.7-0.8,5-2.2,7.5-3.9c4.9-3.5,10.2-8.5,15.9-14.7
			c11.5-12.5,24.8-29.9,37.9-48.2c13.1-18.3,25.9-37.5,36.1-53.4c10.2-15.9,17.6-28.3,20.5-34.1c11.7-23.2,4.4-51.3-17.4-62.4
			C233.9,446.2,228.2,444.8,222.4,444.6L222.4,444.6z"/>
		<path id="path1735" fill="#FFA185" d="M212.7,503.6c-2.4,0-4.5,1.4-5.6,3.5c-1.6,3.1-0.4,7,2.8,8.6l34.1,17.2
			c2.5-4,4.8-7.8,6.7-11l-34.9-17.7C214.8,503.8,213.7,503.6,212.7,503.6z M160.5,516.6c-1.5,3.9-3,7.9-4.5,12.1l34.2,17.3
			c3.1,1.6,7,0.4,8.6-2.8c1.6-3.2,0.3-7-2.8-8.6L160.5,516.6z M179.1,567.2c-2.4,0-4.5,1.4-5.6,3.5c-1.6,3.1-0.3,7,2.8,8.6l27.6,14
			c2.5-3.6,4.9-7.1,7.4-10.7l-29.2-14.7C181.2,567.4,180.2,567.2,179.1,567.2z"/>
		<path id="path1538" fill="#349951" d="M365.8,471.1c-7.2,4.6-14.4,10-21.3,16.4c-15.3,13.9-23.5,31.4-28.1,45.6c0,0,0,0,0,0
			c-0.2,0.7-0.3,1.4-0.4,2.2c2.2,3.8,4.7,7.2,7.5,10.4c8,9.2,17.5,16.9,24.2,24.9c0.4,0.5,0.9,0.9,1.4,1.2c1.1,0.7,2.4,1.4,3.6,2.1
			c0.3-0.1,0.6,0,1-0.1l-0.1,0.1c14.5-3.3,32.6-9.7,47.9-23.7c7-6.4,13.2-13.1,18.5-19.9c-3-1.4-6.5-2.2-9.8-3.3l-41.8-46.1
			C367.6,477.6,366.8,474.2,365.8,471.1L365.8,471.1z"/>
		<path id="path1749" fill="#50B86B" d="M410,464.5c-5.8-0.3-12,0.9-18.5,3.2c-13.1,4.6-27.7,13.5-41.4,26
			c-13.7,12.5-21.4,28.6-25.7,41.9c-0.7,2.2-0.2,4.6,1.4,6.3l19.7,21.7c1.6,1.7,3.9,2.4,6.2,1.9c13.6-3.1,30.3-9.1,44.1-21.6
			c13.7-12.5,24-26.1,29.8-38.7c2.9-6.3,4.7-12.4,4.9-18.2c0.3-5.8-1.2-11.6-5.1-15.9C421.5,466.9,415.8,464.8,410,464.5L410,464.5z
			"/>
		<path id="path1753" fill="#349951" d="M363,521.7c-1.6,0-3.2,0.6-4.4,1.7l-20.3,18.5c-2.6,2.4-2.8,6.4-0.4,9
			c2.4,2.6,6.4,2.8,9,0.4l20.3-18.4c2.6-2.4,2.8-6.4,0.5-9.1c0,0,0,0,0,0C366.4,522.4,364.7,521.7,363,521.7L363,521.7z"/>
		<path id="path1759" fill="#FF7247" d="M313,527.5c-12.9,0-26.1,5-36.7,14.6c-5.3,4.8-16.4,16.5-30.4,32.1
			c-14.1,15.7-30.8,35-46.6,54.5c-15.7,19.4-30.4,38.9-40.4,54.8c-5,8-8.8,15-11,21.2c-1.1,3.1-1.8,6-1.9,9c-0.1,3,0.6,6.4,3,9
			c2.4,2.6,5.8,3.7,8.8,3.8c3,0.2,5.9-0.3,9.1-1.1c6.4-1.6,13.8-4.8,22.2-9c16.8-8.4,37.6-21.3,58.4-35.1
			c20.8-13.9,41.7-28.7,58.6-41.3c16.4-12.2,28.4-21.6,33.9-26.5c0.2-0.1,0.4-0.2,0.5-0.4c0.1,0,0.3-0.2,0.3-0.2
			c0,0,0.1-0.1,0.1-0.1c21.1-19.2,24.6-51,6.6-70.7C338.4,532.3,325.9,527.5,313,527.5L313,527.5z"/>
		<path id="path2372" fill="#F76336" d="M320.4,528.1c0.4,0.4,0.9,0.8,1.3,1.3c18,19.8,14.5,51.5-6.6,70.7c0,0-0.1,0.1-0.1,0.1
			c0,0.1-0.3,0.2-0.3,0.2c-0.2,0.1-0.3,0.3-0.5,0.4c-5.5,4.9-17.4,14.4-33.9,26.6c-16.9,12.5-37.8,27.4-58.6,41.3
			c-20.8,13.9-41.6,26.7-58.4,35.1c-6.2,3.1-11.9,5.6-17,7.4c-0.1,0.9-0.3,1.8-0.4,2.7c-0.1,3,0.6,6.4,3,9c2.4,2.6,5.8,3.7,8.8,3.8
			c3,0.2,5.9-0.3,9.1-1.1c6.4-1.6,13.8-4.8,22.2-9c16.8-8.4,37.6-21.3,58.4-35.1c20.8-13.9,41.7-28.7,58.6-41.3
			c16.4-12.2,28.4-21.6,33.9-26.6c0.2-0.1,0.3-0.2,0.5-0.4c0,0,0.3-0.2,0.3-0.2c0,0,0.1-0.1,0.1-0.1c21.1-19.2,24.6-51,6.6-70.7
			C340.1,534.2,330.6,529.6,320.4,528.1L320.4,528.1z"/>
		<path id="path1763" fill="#FFA185" d="M239.1,582.1c-2.8,3.1-5.6,6.3-8.5,9.7l28.3,31c2.4,2.6,6.4,2.8,9,0.4
			c2.6-2.4,2.8-6.4,0.4-9L239.1,582.1z M296.2,588.3c-1.6,0-3.2,0.6-4.4,1.7c-2.6,2.4-2.8,6.4-0.4,9.1c0,0,0,0,0,0l28.1,30.9
			c3.8-2.9,7.3-5.6,10.2-7.9l-28.8-31.6C299.6,589.1,297.9,588.4,296.2,588.3L296.2,588.3z M236.1,641.1c-1.6,0-3.2,0.6-4.4,1.7
			c-2.6,2.4-2.8,6.4-0.4,9l22.8,25c3.6-2.4,7.1-4.9,10.7-7.3l-23.9-26.3C239.6,641.9,237.9,641.2,236.1,641.1z"/>
	</g>
</g>
</svg>
