<?xml version="1.0" encoding="utf-8"?>
<!-- Generator: Adobe Illustrator 16.0.2, SVG Export Plug-In . SVG Version: 6.00 Build 0)  -->
<!DOCTYPE svg PUBLIC "-//W3C//DTD SVG 1.1//EN" "http://www.w3.org/Graphics/SVG/1.1/DTD/svg11.dtd">
<svg version="1.1" id="Слой_1" xmlns="http://www.w3.org/2000/svg" xmlns:xlink="http://www.w3.org/1999/xlink" x="0px" y="0px"
	 width="1382.4px" height="777.6px" viewBox="0 0 1382.4 777.6" enable-background="new 0 0 1382.4 777.6" xml:space="preserve">
<g>
	<path fill-rule="evenodd" clip-rule="evenodd" fill="#FEFEFE" d="M1383.1,778.3c-460.8,0-921.5,0-1382.3,0c0-259.1,0-518.3,0-777.5
		c460.7,0,921.5,0,1382.3,0C1383.1,259.9,1383.1,519.1,1383.1,778.3z M776.8,540.3c0,0.2,0,0.5,0,0.7c0.1,0,0.2,0,0.3,0
		c0-0.2-0.1-0.5-0.1-0.7c15.1,0,30.1,0,45.2,0c0-6.4,0-12.3,0-18.4c-3,0-5.7,0-8.4,0c-7.2,0-10.5-3.4-10.5-10.5
		c0-110.9,0-221.7,0-332.6c0-1.2,0-2.4,0-3.7c-19.2,0-38.1,0-57.4,0c0,6,0,11.9,0,18.3c6.4,0,12.9,0,19.3,0c0,38.8,0,77.1,0,115.7
		c-2.4-1.6-4.5-3.1-6.7-4.5c-14.4-9.2-46.4-8.7-60.4,5.9c-7.4,7.7-15,15.9-20.3,25.1c-8.1,13.9-11.8,29.5-14.1,45.5
		c-4.2,29.1-4.2,58.3,0.6,87.3c1.9,11.3,4.8,22.6,8.7,33.3c2.8,7.9,6.9,15.8,12.3,22.1c7.6,8.9,17.3,15.9,29.1,18.8
		c13.6,3.3,26.6,2.5,38.4-6c5.1-3.7,10.1-7.6,15.1-11.4c-0.2,1,1.4,4.4,3.4,7.7C772.9,535.4,774.9,537.8,776.8,540.3z M272.3,540.6
		c12.1,6.6,24.6,6.7,37.2,2.2c22.8-8,34.3-25.8,38.7-48c4.2-21.5,5.9-43.4,8.9-65.1c2.7-19.3,5.9-38.5,16-55.5
		c10.3-17.3,21.3-24.7,38.3-21.5c0.1,0.5,0.2,1.1,0.2,1.6c0,52.7,0.1,105.3,0,158c0,6.3-3.7,9.5-10.1,9.6c-4.9,0-9.7,0-14.6,0
		c0,6.4,0,12.3,0,18.2c31.2,0,62.1,0,93.2,0c0-6.2,0-12.1,0-18.2c-4.5,0-8.6,0-12.8,0c-9,0-12.1-3-12.1-12.1c0-57.4,0-114.7,0-172.1
		c0-43.8,0-87.6,0-131.4c0-10.6,2.6-13.1,13.2-13c3.9,0,7.8,0,11.8,0c0-6.5,0-12.3,0-18.4c-1.5,0-2.8,0-4.1,0
		c-23.4,0-46.8-0.3-70.2,0.1c-11.8,0.2-23.8,0.9-35.4,2.9c-20.7,3.6-39.9,11.7-52.4,29.2c-23.9,33.5-22.8,69.7-6.7,105.7
		c8.5,19.1,23.2,33.3,44,41.5c-16.3,4.7-25.3,15.9-31.9,29.9c-7,14.9-11,30.7-13.2,46.8c-2.7,20.1-4.8,40.2-7.2,60.3
		c-0.3,2.7-0.9,5.4-1.5,8.1c-4,18.7-8.9,23-29.3,25.6C272.3,530.2,272.3,535.2,272.3,540.6z M656.4,540.3c0-6.5,0-12.3,0-18.5
		c-2.2,0-4.2,0-6.2,0c-10.7,0-13-2.3-13-13.1c0-54.8,0.2-109.7-0.2-164.5c-0.2-21.3-11-39.8-33.7-45.1c-15.2-3.6-30.3-3.5-43.4,6.5
		c-5,3.8-9.3,8.7-14,13.2c-3.5-6-7.1-12.4-10.7-18.6c-15.4,0-30.5,0-45.9,0c0,6.1,0,12,0,18.2c6.6,0,12.7,0,18.8,0
		c0.2,0.6,0.3,0.8,0.3,1c0,64.6,0,129.1,0,193.7c0,5.2-3.7,8.6-9,8.7c-3.3,0.1-6.6,0-9.9,0c0,6.4,0,12.3,0,18.2
		c25.5,0,50.7,0,76.1,0c0-6.2,0-12.1,0-18.2c-3.2,0-6.2,0-9.2,0c-6.4-0.1-9.8-3.6-9.8-9.8c0-48.8-0.2-97.7,0.2-146.5
		c0.1-9.2,2-18.6,4.5-27.5c3.1-11,16.8-18,28.5-16.8c10.6,1.2,19.4,13.3,19.4,23.9c0.2,55.6,0.1,111.1,0.1,166.7
		c0,5.8-4.5,10.1-10.4,10.2c-3.1,0-6.1,0-9.3,0c0,6.6,0,12.5,0,18.3C605.2,540.3,630.6,540.3,656.4,540.3z M864.6,433.3
		c34.1,0,67.6,0,101,0c0.2-0.5,0.4-0.7,0.4-0.9c1-29.5-0.5-58.8-10.8-86.8c-9.5-25.7-24.9-45.9-55.2-47.8c-10-0.6-19.9,0-29.1,4.8
		c-3.4,1.8-6.7,3.7-10.4,5.8c-0.4,0.6-0.9,1.8-1.8,2.6c-9.7,9.1-16.7,19.8-21.4,32.4c-7.6,20.5-10.8,41.9-11.5,63.4
		c-0.5,17.1,0.8,34.4,2.3,51.5c1.4,16.9,5.6,33.4,13.1,48.6c3.9,7.8,8.2,15.8,15.5,21.7c8.3,6.6,16.5,12.8,27.4,14.5
		c17.9,2.8,34.4-0.1,48.2-12.5c5.7-5.1,10.2-11.4,16.5-18.5c4.6-14.1,9.5-29.6,14.7-45.6c-13.6,0-25.5,0-37.7,0
		c-0.2,1.5-0.2,3-0.5,4.4c-2.8,12.9-4.9,26.1-8.9,38.6c-2.7,8.8-10,13.8-19.8,13.9c-11.6,0.1-20-7-24.4-21
		C865,480.1,865.6,456.9,864.6,433.3z M1116.7,321.1c0-6.4,0-12.3,0-17.9c-22.3,0-43.8,0-64.8,0c0.3,6.3,0.6,12,0.9,18
		c2.8,0,6.5-0.3,10.2,0.1c4.3,0.4,6.9,2.7,4.9,7.3c-3.3,7.5-6.9,14.9-10.5,22.3c-4.3,9.1-8.7,18.1-13.5,28
		c-7.5-17.1-14.7-33.3-21.6-49.5c-0.8-1.9-0.1-4.4-0.1-6.8c5.5-0.7,9.8-1.3,14.4-1.9c0-4.2-0.6-8.5,0.2-12.5
		c1.1-5.5-1.8-5.4-5.6-5.4c-21.4,0-42.7,0-64.1,0c-1.3,0-2.5,0-3.7,0c0,6.4,0,12.4,0,18.8c12.7-2.7,18.7,4.1,22.9,14.6
		c5.8,14.4,12.4,28.5,18.7,42.7c6.1,13.8,12.2,27.5,18.3,41.2c-14.7,29.6-29.4,58.9-43.6,88.5c-4.4,9.2-9.9,15.3-21.5,12.9
		c0,6.6,0,12.7,0,19.3c20.2,0,40.2,0,61.1,0c0-6.6,0-12.6,0-19.2c-5.3,0-10.1,0-15.7,0c-0.2-3.3-1.5-6.5-0.5-8.7
		c10.6-21.5,21.6-42.8,32.9-64.8c10.3,23.7,20.3,46.8,31.2,71.9c-7.6,1.1-12.9,1.9-18.4,2.7c0,5.1,0,10.8,0,16.3
		c25.2,0,49.4,0,73.5,0c0-5.8,0-11.4,0-16.9c-13.7-0.6-17.6-3.4-21.9-15.9c-1-2.8-1.9-5.6-3.1-8.3c-5.1-11.2-10.4-22.4-15.4-33.7
		c-8.4-18.8-16.7-37.8-25.3-57c6.3-11.7,12.8-23.4,19-35.3c7.1-13.8,13.8-27.7,20.6-41.6c3.1-6.3,8-9.7,15.2-9.2
		C1113,321.2,1114.7,321.1,1116.7,321.1z"/>
	<path fill-rule="evenodd" clip-rule="evenodd" fill="#EB1C25" d="M272.3,540.6c0-5.4,0-10.5,0-15.4c20.5-2.6,25.3-6.8,29.3-25.6
		c0.6-2.7,1.2-5.4,1.5-8.1c2.4-20.1,4.5-40.3,7.2-60.3c2.2-16.2,6.2-31.9,13.2-46.8c6.5-14,15.6-25.2,31.9-29.9
		c-20.8-8.1-35.5-22.3-44-41.5c-16.1-36.1-17.1-72.2,6.7-105.7c12.5-17.5,31.8-25.6,52.4-29.2c11.6-2,23.6-2.7,35.4-2.9
		c23.4-0.4,46.8-0.1,70.2-0.1c1.3,0,2.6,0,4.1,0c0,6.1,0,12,0,18.4c-4,0-7.9,0-11.8,0c-10.7-0.1-13.2,2.4-13.2,13
		c0,43.8,0,87.6,0,131.4c0,57.4,0,114.7,0,172.1c0,9,3.1,12.1,12.1,12.1c4.2,0,8.4,0,12.8,0c0,6.1,0,12.1,0,18.2
		c-31.1,0-62,0-93.2,0c0-5.9,0-11.9,0-18.2c4.8,0,9.7,0,14.6,0c6.4-0.1,10.1-3.3,10.1-9.6c0.1-52.7,0-105.3,0-158
		c0-0.6-0.1-1.1-0.2-1.6c-17.1-3.2-28.1,4.3-38.3,21.5c-10.1,17-13.3,36.3-16,55.5c-3,21.7-4.7,43.7-8.9,65.1
		c-4.4,22.2-15.9,40.1-38.7,48C296.9,547.3,284.4,547.2,272.3,540.6z M411.5,193.4c-4.9,0-9.4-0.2-14,0.1c-6,0.4-12,0.8-17.9,1.8
		c-19.2,3.4-33.3,15.7-35,34c-1.8,19.2-2.9,39-0.3,58c5.4,40.1,34.5,48.9,67.1,45.8C411.5,286.8,411.5,240.4,411.5,193.4z"/>
	<path fill-rule="evenodd" clip-rule="evenodd" fill="#242021" d="M776.8,540.3c-1.9-2.5-3.9-4.9-5.6-7.6c-2-3.2-3.7-6.7-3.4-7.7
		c-5,3.8-10,7.7-15.1,11.4c-11.8,8.5-24.8,9.3-38.4,6c-11.8-2.9-21.5-9.9-29.1-18.8c-5.4-6.3-9.4-14.2-12.3-22.1
		c-3.9-10.8-6.8-22-8.7-33.3c-4.8-29-4.8-58.1-0.6-87.3c2.3-15.9,6.1-31.6,14.1-45.5c5.4-9.2,12.9-17.3,20.3-25.1
		c14-14.6,45.9-15.1,60.4-5.9c2.2,1.4,4.3,2.9,6.7,4.5c0-38.6,0-76.9,0-115.7c-6.4,0-13,0-19.3,0c0-6.4,0-12.2,0-18.3
		c19.3,0,38.2,0,57.4,0c0,1.3,0,2.5,0,3.7c0,110.9,0,221.7,0,332.6c0,7.1,3.4,10.5,10.5,10.5c2.7,0,5.5,0,8.4,0c0,6.1,0,12.1,0,18.4
		c-15.1,0-30.1,0-45.2,0C776.9,540.3,776.8,540.3,776.8,540.3z M763.2,420.5c0.1,0,0.3,0,0.4,0c0-15.8,0.6-31.7-0.2-47.5
		c-0.6-11.9-1.9-23.9-4.7-35.4c-3.3-12.9-13.2-18.8-27.2-18.8c-11,0-19,5.6-22.6,18.4c-3,10.6-5.4,21.7-5.8,32.7
		c-1,29.9-1.1,59.9-0.8,89.9c0.1,15.8,1.1,31.7,6.9,46.7c3.7,9.5,9.5,16.6,20.7,17.1c12.4,0.5,22.8-3.8,27.1-15.8
		c3.4-9.5,5.5-19.9,6-30C763.9,458.7,763.2,439.6,763.2,420.5z"/>
	<path fill-rule="evenodd" clip-rule="evenodd" fill="#242021" d="M656.4,540.3c-25.7,0-51.1,0-76.9,0c0-5.9,0-11.8,0-18.3
		c3.2,0,6.2,0,9.3,0c5.8-0.1,10.4-4.3,10.4-10.2c0-55.6,0.1-111.1-0.1-166.7c0-10.6-8.8-22.7-19.4-23.9C568,320,554.2,327,551.2,338
		c-2.5,8.9-4.4,18.3-4.5,27.5c-0.4,48.8-0.2,97.7-0.2,146.5c0,6.3,3.5,9.8,9.8,9.8c3,0,6,0,9.2,0c0,6.1,0,12,0,18.2
		c-25.3,0-50.6,0-76.1,0c0-5.9,0-11.8,0-18.2c3.2,0,6.6,0.1,9.9,0c5.3-0.2,9-3.5,9-8.7c0-64.6,0-129.1,0-193.7c0-0.2-0.1-0.5-0.3-1
		c-6.1,0-12.3,0-18.8,0c0-6.2,0-12.1,0-18.2c15.4,0,30.5,0,45.9,0c3.6,6.2,7.2,12.5,10.7,18.6c4.7-4.5,8.9-9.3,14-13.2
		c13.2-10,28.2-10.1,43.4-6.5c22.7,5.3,33.5,23.8,33.7,45.1c0.4,54.8,0.2,109.7,0.2,164.5c0,10.8,2.3,13.1,13,13.1c2,0,4,0,6.2,0
		C656.4,528.1,656.4,533.9,656.4,540.3z"/>
	<path fill-rule="evenodd" clip-rule="evenodd" fill="#242021" d="M864.6,433.3c1,23.6,0.5,46.8,7.5,69.2
		c4.4,14.1,12.8,21.2,24.4,21c9.8-0.1,17.1-5.1,19.8-13.9c3.9-12.6,6-25.7,8.9-38.6c0.3-1.4,0.3-2.8,0.5-4.4c12.2,0,24.2,0,37.7,0
		c-5.2,16-10.2,31.4-14.7,45.6c-6.2,7.1-10.8,13.4-16.5,18.5c-13.8,12.4-30.3,15.2-48.2,12.5c-10.8-1.7-19.1-7.9-27.4-14.5
		c-7.3-5.8-11.6-13.8-15.5-21.7c-7.6-15.2-11.7-31.7-13.1-48.6c-1.4-17.1-2.8-34.4-2.3-51.5c0.7-21.6,3.8-42.9,11.5-63.4
		c4.7-12.6,11.8-23.3,21.4-32.4c0.9-0.8,1.4-2.1,1.8-2.6c3.7-2.1,7-4,10.4-5.8c9.2-4.8,19.1-5.4,29.1-4.8
		c30.4,2,45.7,22.1,55.2,47.8c10.3,27.9,11.8,57.3,10.8,86.8c0,0.2-0.2,0.4-0.4,0.9C932.2,433.3,898.7,433.3,864.6,433.3z
		 M927.6,407c-1-14.9-1.3-29.7-3-44.2c-1.2-9.8-3.5-19.6-6.8-28.8c-4.4-12.2-14.1-17.6-25.9-15.6c-10.7,1.7-16.8,9.4-19,18.9
		c-3.3,14.1-5.5,28.6-7.1,43c-1,8.8-0.2,17.8-0.2,26.8C885.8,407,906.3,407,927.6,407z"/>
	<path fill-rule="evenodd" clip-rule="evenodd" fill="#242021" d="M1116.7,321.1c-2.1,0-3.7,0.1-5.4,0c-7.2-0.4-12.1,2.9-15.2,9.2
		c-6.8,13.9-13.5,27.8-20.6,41.6c-6.1,11.9-12.7,23.6-19,35.3c8.5,19.3,16.8,38.2,25.3,57c5,11.3,10.3,22.4,15.4,33.7
		c1.2,2.7,2.1,5.5,3.1,8.3c4.3,12.4,8.1,15.3,21.9,15.9c0,5.6,0,11.1,0,16.9c-24.1,0-48.2,0-73.5,0c0-5.5,0-11.2,0-16.3
		c5.5-0.8,10.8-1.6,18.4-2.7c-10.9-25.1-20.9-48.2-31.2-71.9c-11.2,22-22.2,43.3-32.9,64.8c-1,2.1,0.3,5.4,0.5,8.7
		c5.7,0,10.4,0,15.7,0c0,6.6,0,12.7,0,19.2c-20.8,0-40.9,0-61.1,0c0-6.6,0-12.7,0-19.3c11.6,2.4,17.1-3.7,21.5-12.9
		c14.2-29.5,29-58.8,43.6-88.5c-6.1-13.7-12.2-27.4-18.3-41.2c-6.3-14.2-12.9-28.3-18.7-42.7c-4.2-10.6-10.2-17.3-22.9-14.6
		c0-6.4,0-12.3,0-18.8c1.2,0,2.4,0,3.7,0c21.4,0,42.7,0,64.1,0c3.7,0,6.7-0.1,5.6,5.4c-0.8,4-0.2,8.3-0.2,12.5
		c-4.6,0.6-8.9,1.2-14.4,1.9c0,2.4-0.7,4.9,0.1,6.8c6.9,16.3,14.1,32.4,21.6,49.5c4.8-9.9,9.2-18.9,13.5-28
		c3.5-7.4,7.1-14.8,10.5-22.3c2-4.6-0.6-6.9-4.9-7.3c-3.7-0.4-7.4-0.1-10.2-0.1c-0.3-6-0.6-11.7-0.9-18c21,0,42.5,0,64.8,0
		C1116.7,308.9,1116.7,314.7,1116.7,321.1z"/>
	<path fill-rule="evenodd" clip-rule="evenodd" fill="#EB1C25" d="M776.8,540.3c0,0,0.2,0,0.2,0c0,0.2,0.1,0.5,0.1,0.7
		c-0.1,0-0.2,0-0.3,0C776.8,540.8,776.8,540.5,776.8,540.3z"/>
	<path fill-rule="evenodd" clip-rule="evenodd" fill="#FEFEFE" d="M411.5,193.4c0,47,0,93.3,0,139.7c-32.6,3.1-61.8-5.7-67.1-45.8
		c-2.6-19-1.5-38.8,0.3-58c1.7-18.4,15.8-30.6,35-34c5.9-1.1,11.9-1.4,17.9-1.8C402.1,193.2,406.6,193.4,411.5,193.4z"/>
	<path fill-rule="evenodd" clip-rule="evenodd" fill="#FEFEFE" d="M763.2,420.5c0,19.1,0.7,38.2-0.3,57.2c-0.5,10.1-2.6,20.5-6,30
		c-4.3,12-14.7,16.3-27.1,15.8c-11.2-0.4-17.1-7.6-20.7-17.1c-5.8-15-6.8-30.9-6.9-46.7c-0.3-30-0.1-59.9,0.8-89.9
		c0.4-11,2.8-22.1,5.8-32.7c3.7-12.8,11.6-18.4,22.6-18.4c14.1,0,24,5.9,27.2,18.8c2.9,11.5,4.2,23.5,4.7,35.4
		c0.8,15.8,0.2,31.6,0.2,47.5C763.5,420.5,763.3,420.5,763.2,420.5z"/>
	<path fill-rule="evenodd" clip-rule="evenodd" fill="#FEFEFE" d="M927.6,407c-21.3,0-41.9,0-62,0c0-8.9-0.8-18,0.2-26.8
		c1.7-14.4,3.8-28.9,7.1-43c2.2-9.5,8.3-17.1,19-18.9c11.8-1.9,21.5,3.4,25.9,15.6c3.3,9.2,5.7,19.1,6.8,28.8
		C926.3,377.3,926.7,392.1,927.6,407z"/>
</g>
</svg>
