<?xml version="1.0" encoding="UTF-8" standalone="no"?>
<!-- Created with Inkscape (http://www.inkscape.org/) -->

<svg
   version="1.1"
   id="svg25552"
   xml:space="preserve"
   width="530.66669"
   height="530.66669"
   viewBox="0 0 530.66669 530.66669"
   sodipodi:docname="retro-couple-silhouette-publicdomainvectors.org.svg"
   inkscape:version="1.1.2 (b8e25be833, 2022-02-05)"
   xmlns:inkscape="http://www.inkscape.org/namespaces/inkscape"
   xmlns:sodipodi="http://sodipodi.sourceforge.net/DTD/sodipodi-0.dtd"
   xmlns="http://www.w3.org/2000/svg"
   xmlns:svg="http://www.w3.org/2000/svg"><defs
     id="defs25556"><clipPath
       clipPathUnits="userSpaceOnUse"
       id="clipPath25566"><path
         d="M 0,398 H 398 V 0 H 0 Z"
         id="path25564" /></clipPath></defs><sodipodi:namedview
     id="namedview25554"
     pagecolor="#ffffff"
     bordercolor="#666666"
     borderopacity="1.0"
     inkscape:pageshadow="2"
     inkscape:pageopacity="0.0"
     inkscape:pagecheckerboard="0"
     showgrid="false"
     inkscape:zoom="1.5659547"
     inkscape:cx="265.33334"
     inkscape:cy="265.33334"
     inkscape:window-width="1920"
     inkscape:window-height="1018"
     inkscape:window-x="-8"
     inkscape:window-y="-8"
     inkscape:window-maximized="1"
     inkscape:current-layer="g25558" /><g
     id="g25558"
     inkscape:groupmode="layer"
     inkscape:label="retro-couple-silhouette-publicdomainvectors.org"
     transform="matrix(1.3333333,0,0,-1.3333333,0,530.66667)"><g
       id="g25560"><g
         id="g25562"
         clip-path="url(#clipPath25566)"><path
           d="m 298.317,172.686 21.636,55.372 c -0.52,0.487 -1.168,0.873 -1.641,1.395 -0.293,0.327 -0.268,0.423 -0.029,0.764 2.398,3.427 3.705,7.097 3.143,11.421 -0.452,3.454 -1.182,6.811 -2.311,10.085 -0.85,2.464 -1.782,4.895 -2.679,7.338 L 274.25,238.765 Z"
           style="fill:#dae262;fill-opacity:1;fill-rule:nonzero;stroke:none"
           id="path25568" /><path
           d="m 329.896,147.215 c -0.061,0.699 -0.158,1.396 -0.293,2.09 -0.427,2.197 -1.54,4.244 -2.565,6.269 -1.108,2.194 -2.477,4.225 -3.906,6.211 -0.101,0.139 -0.299,0.383 -0.271,0.418 0.177,0.193 0.385,0.014 0.559,-0.049 2.707,-0.945 5.464,-1.703 8.292,-2.193 1.777,-0.307 3.114,0.156 4.303,1.609 1.469,1.797 2.788,3.657 3.715,5.778 1.084,2.472 1.546,5.111 1.887,7.773 0.228,1.856 0.67,3.527 0.567,5.416 l -43.867,-7.851 z"
           style="fill:#74e0e0;fill-opacity:1;fill-rule:nonzero;stroke:none"
           id="path25570" /><path
           d="m 342.184,180.537 c -0.007,0.109 -0.014,0.221 -0.024,0.332 -0.133,1.541 -1.155,2.262 -1.71,3.611 -0.389,0.936 -0.612,1.932 -0.869,2.909 -0.254,0.943 -0.629,1.873 -1.092,2.734 -1.177,2.191 -1.991,4.533 -3.009,6.785 -0.855,1.888 -2.037,3.671 -2.614,5.632 -0.91,3.113 -2.689,5.844 -3.606,8.924 -1.183,3.982 -3.018,7.601 -5.402,11.003 -0.893,1.272 -1.724,2.562 -2.864,3.628 -0.065,0.063 -0.17,0.132 -0.175,0.202 -0.029,0.792 -0.394,1.319 -0.866,1.761 l -21.636,-55.372 z"
           style="fill:#afdf7b;fill-opacity:1;fill-rule:nonzero;stroke:none"
           id="path25572" /><path
           d="m 293.967,334.142 c -0.251,0.188 -0.526,0.36 -0.828,0.516 -0.969,0.496 -1.776,1.282 -2.638,1.942 -1.516,1.158 -3.19,1.995 -4.858,2.816 -2.072,1.021 -3.747,2.363 -5.085,4.247 -1.033,1.452 -2.243,2.787 -3.459,4.093 -1.856,2.002 -4.372,2.927 -6.784,4.032 -1.621,0.74 -3.474,1.199 -5.331,1.284 l 1.454,-48.439 z"
           style="fill:#df2200;fill-opacity:1;fill-rule:nonzero;stroke:none"
           id="path25574" /><path
           d="m 285.86,99.975 c 0.266,0.162 0.53,0.402 0.789,0.72 0.501,0.608 0.849,1.369 1.836,1.344 0.216,-0.006 0.458,0.254 0.661,0.422 0.904,0.742 1.814,1.307 3.053,1.514 5.058,0.841 9.207,3.588 13.322,6.461 3.086,2.156 5.693,4.8 8.363,7.406 3.218,3.142 5.79,6.806 8.556,10.32 1.045,1.328 1.969,2.725 2.807,4.162 l -61.342,12.494 z"
           style="fill:#14b4ec;fill-opacity:1;fill-rule:nonzero;stroke:none"
           id="path25576" /><path
           d="m 312.626,306.467 c -0.054,0.761 -0.108,1.521 -0.16,2.281 -0.195,2.881 -1.787,5.158 -3.427,7.361 -3.107,4.171 -6.853,7.72 -11.09,10.719 -1.352,0.959 -1.714,2.297 -1.957,3.753 -0.252,1.496 -0.874,2.698 -2.025,3.561 l -27.529,-29.509 z"
           style="fill:#dc2b00;fill-opacity:1;fill-rule:nonzero;stroke:none"
           id="path25578" /><path
           d="m 312.642,280.405 c -0.016,0.841 -0.031,1.68 -0.058,2.521 -0.083,2.537 -0.125,5.078 -0.077,7.611 0.063,3.337 0.358,6.67 0.368,10.003 0.006,1.976 -0.113,3.953 -0.249,5.927 l -46.188,-1.834 z"
           style="fill:#df5e00;fill-opacity:1;fill-rule:nonzero;stroke:none"
           id="path25580" /><path
           d="m 263.905,144.818 61.342,-12.494 c 1.333,2.289 2.449,4.692 3.49,7.133 1.066,2.484 1.387,5.127 1.159,7.758 l -31.579,25.471 z"
           style="fill:#67d7ef;fill-opacity:1;fill-rule:nonzero;stroke:none"
           id="path25582" /><path
           d="m 274.25,238.765 42.186,20.296 c -0.339,0.927 -0.676,1.856 -0.998,2.79 -1.204,3.475 -1.885,7.083 -2.368,10.718 -0.346,2.601 -0.383,5.219 -0.428,7.836 l -46.204,24.228 z"
           style="fill:#e88200;fill-opacity:1;fill-rule:nonzero;stroke:none"
           id="path25584" /><path
           d="M 298.317,172.686 274.25,238.765 242.372,190.42 Z"
           style="fill:#dcf07c;fill-opacity:1;fill-rule:nonzero;stroke:none"
           id="path25586" /><path
           d="m 209.648,69.871 61.8,-10.035 c -0.21,0.807 -0.431,1.611 -0.66,2.412 -1.175,4.131 -3.023,7.957 -4.99,11.703 -1.37,2.617 -2.58,5.279 -3.678,8.008 -0.723,1.789 -0.716,3.615 -0.306,5.521 0.328,1.512 0.536,3.045 1.036,4.516 0.119,0.336 0.215,0.66 0.571,0.871 1.278,0.766 1.605,2.141 2.112,3.401 0.451,1.119 0.522,2.355 1.015,3.474 0.183,0.41 0.368,0.58 0.842,0.598 1.865,0.076 3.649,0.515 5.317,1.387 1.445,0.761 2.995,1.115 4.629,1.216 1.168,0.073 2.272,0.459 3.382,0.825 1.418,0.464 1.675,0.285 1.942,-1.213 0.118,-0.659 0.046,-1.354 0.591,-1.92 0.906,-0.94 1.772,-1.176 2.609,-0.66 l -21.955,44.843 z"
           style="fill:#31bded;fill-opacity:1;fill-rule:nonzero;stroke:none"
           id="path25588" /><path
           d="m 240.336,41.32 c 1.564,-0.013 3.065,-0.478 4.529,-1.056 0.684,-0.272 1.401,-0.541 2.119,-0.619 1.749,-0.176 3.424,-0.907 5.109,-0.995 2.11,-0.111 3.862,-1.234 5.927,-1.466 1.639,-0.188 3.391,-0.707 4.851,-1.75 0.907,-0.647 2.092,-0.516 3.113,-0.948 0.906,-0.381 1.899,-0.578 2.726,-1.16 0.473,-0.326 0.952,-0.615 1.55,-0.597 0.576,0.013 0.799,-0.295 0.827,-0.821 h 1.794 c 0.659,0.672 0.781,1.565 0.82,2.406 0.2,4.477 0.434,8.967 -0.007,13.426 -0.405,4.088 -1.205,8.114 -2.246,12.096 l -61.8,10.035 4.029,-27.348 c 1.698,-0.085 3.315,-0.654 4.972,-1.002 0.529,-0.107 1.05,-0.187 1.593,-0.187 6.7,0.006 13.398,0.027 20.094,-0.014"
           style="fill:#0181dd;fill-opacity:1;fill-rule:nonzero;stroke:none"
           id="path25590" /><path
           d="m 202.893,103.229 6.755,-33.358 54.257,74.947 z"
           style="fill:#8bebdb;fill-opacity:1;fill-rule:nonzero;stroke:none"
           id="path25592" /><path
           d="M 266.438,304.633 239.415,251.221 274.25,238.765 Z"
           style="fill:#f38900;fill-opacity:1;fill-rule:nonzero;stroke:none"
           id="path25594" /><path
           d="m 263.905,144.818 34.412,27.868 -55.945,17.734 z"
           style="fill:#b7f3bb;fill-opacity:1;fill-rule:nonzero;stroke:none"
           id="path25596" /><path
           d="m 231.411,312.207 c 0.744,2.196 0.528,4.399 0.185,6.621 -0.644,4.173 -0.182,8.201 1.616,12.051 0.187,0.418 0.473,0.752 0.778,1.085 0.584,0.64 0.643,1.421 0.034,2.009 -0.642,0.618 -0.646,1.227 -0.517,2.016 0.799,4.921 0.588,9.766 -1.023,14.534 -0.851,2.517 -1.378,5.109 -0.983,7.82 0.377,2.544 -0.913,4.462 -2.835,5.79 -1.873,1.288 -3.504,2.836 -5.201,4.308 l 7.142,-58.618 c 0.268,0.795 0.538,1.589 0.804,2.384"
           style="fill:#ef3500;fill-opacity:1;fill-rule:nonzero;stroke:none"
           id="path25598" /><path
           d="m 264.984,353.072 c -3.303,0.152 -6.618,-0.88 -8.647,-3.637 -1.536,-2.089 -2.259,-4.32 -2.495,-6.794 -0.153,-1.627 -0.494,-3.229 -0.487,-4.88 0.008,-2.211 0.125,-4.386 0.942,-6.464 0.323,-0.82 0.72,-1.599 1.815,-1.571 0.287,0.004 0.743,0.181 0.817,-0.292 0.075,-0.479 0.152,-0.98 -0.411,-1.341 -2.096,-1.342 -3.965,-2.962 -5.697,-4.748 -1.046,-1.084 -1.741,-2.419 -2.64,-3.594 -1.519,-1.974 -2.399,-4.233 -3.184,-6.533 -0.907,-2.663 -1.363,-5.422 -1.363,-8.244 -0.002,-0.768 0.108,-1.54 0.202,-2.308 0.094,-0.736 -0.296,-0.914 -0.903,-0.813 -0.658,0.111 -1.248,0.403 -1.784,0.8 -0.434,0.326 -0.918,0.521 -1.39,0.128 -0.515,-0.435 -0.317,-0.984 -0.076,-1.477 0.348,-0.713 1.029,-1.154 1.529,-1.745 0.414,-0.486 0.459,-0.817 -0.236,-1.119 -1.388,-0.606 -2.58,-1.536 -3.836,-2.36 l 29.298,8.553 z"
           style="fill:#f43800;fill-opacity:1;fill-rule:nonzero;stroke:none"
           id="path25600" /><path
           d="M 266.438,304.633 237.14,296.08 c -0.216,-0.141 -0.434,-0.281 -0.655,-0.414 -1.195,-0.723 -2.582,-1.056 -3.676,-1.998 -0.058,-0.05 -0.114,-0.102 -0.168,-0.154 l 1.293,-8.07 c 0.438,-0.539 0.989,-0.916 1.857,-0.795 0.409,0.063 0.523,-0.131 0.507,-0.503 -0.022,-0.331 0.042,-0.733 -0.463,-0.678 -0.694,0.078 -1.138,-0.183 -1.496,-0.557 l 5.076,-31.69 z"
           style="fill:#f77700;fill-opacity:1;fill-rule:nonzero;stroke:none"
           id="path25602" /><path
           d="m 274.25,238.765 -34.835,12.456 2.957,-60.801 z"
           style="fill:#f2da4a;fill-opacity:1;fill-rule:nonzero;stroke:none"
           id="path25604" /><path
           d="m 228.593,303.542 c 0.616,2.108 1.311,4.196 2.014,6.281 l -7.142,58.618 c -0.413,0.358 -0.83,0.714 -1.257,1.058 -3.392,2.732 -6.95,4.865 -11.097,6.204 -2.291,0.739 -5.233,0.656 -7.621,0.712 -1.071,0.027 -2.14,0.021 -3.21,-0.014 l -33.586,-48.875 c 0.106,-3.132 1.213,-6.06 2.314,-8.97 0.509,-1.339 1.184,-2.606 1.882,-3.866 l 55.62,-18.052 c 0.723,2.291 1.407,4.596 2.083,6.904"
           style="fill:#fb6100;fill-opacity:1;fill-rule:nonzero;stroke:none"
           id="path25606" /><path
           d="m 177.348,169.098 86.557,-24.28 -21.533,45.602 z"
           style="fill:#d8f890;fill-opacity:1;fill-rule:nonzero;stroke:none"
           id="path25608" /><path
           d="m 202.893,103.229 61.012,41.589 -86.557,24.28 z"
           style="fill:#c5f5c1;fill-opacity:1;fill-rule:nonzero;stroke:none"
           id="path25610" /><path
           d="m 198.245,376.304 c -0.74,-0.049 -1.479,-0.112 -2.22,-0.188 -2.545,-0.271 -5.075,-0.713 -7.564,-1.321 -1.274,-0.312 -2.545,-0.667 -3.794,-1.07 -1.084,-0.354 -1.728,-0.966 -2.646,-1.634 -1.975,-1.435 -3.757,-3.113 -5.587,-4.712 -1.919,-1.675 -3.695,-3.593 -5.19,-5.655 -1.935,-2.669 -3.223,-5.661 -3.305,-9.098 -0.082,-3.549 -0.323,-7.101 -0.209,-10.649 0.058,-1.779 -0.103,-3.583 0.333,-5.342 0.086,-0.354 -0.084,-0.653 -0.197,-0.952 -0.866,-2.294 -1.075,-4.702 -1.173,-7.111 -0.013,-0.351 -0.01,-0.699 10e-4,-1.046 l 33.586,48.875 c -0.678,-0.021 -1.357,-0.051 -2.035,-0.097"
           style="fill:#f55a00;fill-opacity:1;fill-rule:nonzero;stroke:none"
           id="path25612" /><path
           d="m 194.257,49.799 c 0.712,-0.363 1.427,-0.723 2.136,-1.094 1.366,-0.711 2.777,-1.379 4.017,-2.271 1.685,-1.213 3.477,-2.002 5.513,-2.389 1.846,-0.352 3.649,-0.91 5.476,-1.363 0.375,-0.09 0.769,-0.215 1.141,-0.18 0.384,0.035 0.762,0.039 1.137,0.021 l -4.029,27.348 z"
           style="fill:#6cb0c4;fill-opacity:1;fill-rule:nonzero;stroke:none"
           id="path25614" /><path
           d="m 239.415,251.221 -84.657,15.2 22.59,-97.323 z"
           style="fill:#ffd100;fill-opacity:1;fill-rule:nonzero;stroke:none"
           id="path25616" /><path
           d="m 242.372,190.42 -2.957,60.801 -62.067,-82.123 z"
           style="fill:#f9ed2d;fill-opacity:1;fill-rule:nonzero;stroke:none"
           id="path25618" /><path
           d="m 231.813,289.988 c 0.543,-1.258 0.877,-2.607 1.6,-3.785 0.163,-0.265 0.332,-0.528 0.521,-0.759 l -1.293,8.07 c -1.033,-0.974 -1.401,-2.18 -0.828,-3.526"
           style="fill:#fd9d00;fill-opacity:1;fill-rule:nonzero;stroke:none"
           id="path25620" /><path
           d="m 239.415,251.221 -5.076,31.69 c -0.436,-0.455 -0.746,-1.08 -1.225,-1.473 -0.26,-0.208 -0.149,-0.737 0,-1.108 0.105,-0.247 0.212,-0.504 0.362,-0.72 0.976,-1.407 1.147,-2.679 -0.23,-4.035 -0.849,-0.837 -0.281,-1.887 0.132,-2.832 0.129,-0.299 0.807,-0.358 0.396,-0.914 -0.431,-0.58 -0.924,-0.991 -1.689,-0.953 -1.182,0.06 -2.327,0.449 -3.336,0.929 -1.821,0.868 -3.826,1.355 -5.505,2.515 -1.55,1.071 -3.364,1.648 -4.886,2.788 -0.584,0.434 -1.477,0.4 -2.054,0.976 -0.094,0.09 -0.321,0.066 -0.295,0.261 0.007,0.055 0.187,0.097 0.291,0.133 2.86,0.934 4.372,3.183 5.547,5.737 1.167,2.545 2.183,5.14 3.11,7.767 l -70.199,-25.561 z"
           style="fill:#fd9d00;fill-opacity:1;fill-rule:nonzero;stroke:none"
           id="path25622" /><path
           d="m 224.957,291.982 c 0.545,1.543 1.06,3.096 1.553,4.656 l -55.62,18.052 c 0.026,-0.048 0.053,-0.097 0.08,-0.145 0.764,-1.377 0.904,-3.003 0.742,-4.511 -0.161,-1.501 -0.071,-2.982 -0.156,-4.469 -0.016,-0.295 0.037,-0.608 -0.032,-0.89 -0.247,-1.036 -0.474,-2.12 -0.816,-3.072 -0.619,-1.731 -1.954,-3.128 -3.444,-4.24 -2.392,-1.773 -4.875,-3.43 -7.299,-5.165 -0.861,-0.615 -1.738,-1.184 -2.651,-1.684 l -2.556,-24.093 z"
           style="fill:#ff9300;fill-opacity:1;fill-rule:nonzero;stroke:none"
           id="path25624" /><path
           d="m 177.348,169.098 -6.545,-61.225 32.09,-4.644 z"
           style="fill:#cbf387;fill-opacity:1;fill-rule:nonzero;stroke:none"
           id="path25626" /><path
           d="m 173.354,64.205 c 0.106,-1.019 0.642,-1.873 1.334,-2.721 2.8,-3.451 6.682,-4.875 10.797,-5.879 0.676,-0.167 1.329,-0.3 1.697,-0.992 0.288,-0.537 0.92,-0.621 1.381,-0.927 1.066,-0.713 1.841,-1.758 2.958,-2.413 0.896,-0.525 1.814,-1.003 2.736,-1.474 l 15.391,20.072 z"
           style="fill:#8bcfa3;fill-opacity:1;fill-rule:nonzero;stroke:none"
           id="path25628" /><path
           d="m 170.803,107.873 38.845,-38.002 -6.755,33.358 z"
           style="fill:#96eaa2;fill-opacity:1;fill-rule:nonzero;stroke:none"
           id="path25630" /><path
           d="m 170.803,107.873 -4.928,-20.176 c 3.021,-0.664 5.927,-1.695 8.838,-2.711 2.421,-0.841 4.411,-2.455 5.975,-4.519 1.34,-1.772 1.127,-3.737 -0.52,-5.205 -0.111,-0.098 -0.23,-0.201 -0.31,-0.324 -1.318,-2.075 -3.177,-3.715 -4.575,-5.723 -0.817,-1.176 -1.559,-2.385 -1.862,-3.83 -0.089,-0.42 -0.106,-0.811 -0.067,-1.18 l 36.294,5.666 z"
           style="fill:#9ae292;fill-opacity:1;fill-rule:nonzero;stroke:none"
           id="path25632" /><path
           d="M 154.758,266.421 105.99,189.152 177.348,169.098 Z"
           style="fill:#ffce00;fill-opacity:1;fill-rule:nonzero;stroke:none"
           id="path25634" /><path
           d="m 105.99,189.152 -1.524,-5.888 c 1.257,-2.5 2.666,-4.924 4.158,-7.301 2.255,-3.59 4.483,-7.197 6.794,-10.75 2.096,-3.223 3.911,-6.643 6.58,-9.465 0.425,-0.447 0.745,-0.996 1.425,-1.156 0.523,-0.125 0.469,-0.633 0.482,-1.022 0.03,-0.799 0.158,-1.547 0.757,-2.138 0.29,-0.287 0.378,-0.746 0.197,-0.996 -0.769,-1.049 -0.265,-2.17 -0.168,-3.211 0.317,-3.42 0.657,-6.854 0.155,-10.256 -0.276,-1.867 -0.615,-3.744 -0.996,-5.608 -1.235,-6.056 -3.383,-11.857 -4.739,-17.884 -0.284,-1.266 -0.611,-2.524 -0.96,-3.776 l 52.652,-1.828 z"
           style="fill:#f0d03c;fill-opacity:1;fill-rule:nonzero;stroke:none"
           id="path25636" /><path
           d="m 105.99,189.152 64.813,-81.279 6.545,61.225 z"
           style="fill:#f6e63a;fill-opacity:1;fill-rule:nonzero;stroke:none"
           id="path25638" /><path
           d="m 118.151,109.701 c -0.956,-3.424 -2.094,-6.808 -3.08,-10.228 -0.658,-2.285 -1.205,-4.596 -1.645,-6.928 l 6.046,-3.99 c 0.353,1.129 1.161,1.656 2.346,1.859 2.209,0.383 4.442,0.529 6.666,0.557 4.061,0.045 8.128,-0.008 12.187,-0.133 3.302,-0.098 6.616,-0.215 9.888,-0.621 1.967,-0.248 3.953,-0.406 5.915,-0.803 2.165,-0.437 4.342,-0.928 6.518,-1.207 0.975,-0.125 1.935,-0.299 2.883,-0.51 l 4.928,20.176 z"
           style="fill:#c7df6f;fill-opacity:1;fill-rule:nonzero;stroke:none"
           id="path25640" /><path
           d="M 154.758,266.421 66.723,244.043 92.911,207.435 c 0.077,0.061 0.153,0.121 0.23,0.182 0.775,0.601 0.939,0.475 1.392,-0.39 1.008,-1.927 1.944,-3.883 2.747,-5.899 l 8.71,-12.176 z"
           style="fill:#feb200;fill-opacity:1;fill-rule:nonzero;stroke:none"
           id="path25642" /><path
           d="m 112.688,87.846 c -0.126,-1.022 -0.731,-1.953 -0.569,-3.049 0.106,-0.715 0.125,-1.496 0.877,-1.834 0.737,-0.334 1.439,-0.129 2.07,0.41 0.907,0.772 1.847,1.508 2.786,2.246 0.872,0.68 1.31,1.625 1.544,2.654 0.022,0.098 0.048,0.19 0.076,0.282 l -6.046,3.99 c -0.294,-1.557 -0.54,-3.123 -0.738,-4.699"
           style="fill:#d3bf53;fill-opacity:1;fill-rule:nonzero;stroke:none"
           id="path25644" /><path
           d="m 157.314,290.514 c -1.201,-0.658 -2.465,-1.195 -3.838,-1.555 -1.616,-0.421 -3.256,-0.834 -4.807,-1.519 -0.55,-0.243 -1.193,-0.354 -1.796,-0.476 -4.277,-0.858 -8.513,-1.846 -12.929,-1.995 -1.287,-0.043 -2.576,-0.092 -3.865,-0.149 l 24.679,-18.399 z"
           style="fill:#ff8500;fill-opacity:1;fill-rule:nonzero;stroke:none"
           id="path25646" /><path
           d="m 154.758,266.421 -24.679,18.399 c -2.666,-0.118 -5.334,-0.277 -7.993,-0.518 -2.366,-0.215 -4.725,-0.549 -7.083,-0.872 -2.422,-0.33 -4.862,-0.592 -7.295,-0.511 -2.856,0.097 -5.623,-0.591 -8.452,-0.681 -1.51,-0.05 -3.032,-0.091 -4.532,-0.358 -0.718,-0.129 -1.407,-0.31 -1.941,-0.828 -1.507,-1.463 -3.236,-2.724 -3.92,-4.886 -0.27,-0.851 -0.876,-1.584 -0.988,-2.527 -0.039,-0.333 -0.269,-0.66 -0.456,-0.966 -0.294,-0.473 -0.982,-0.726 -1.273,-0.569 -0.436,0.229 -0.461,0.85 -0.234,1.431 0.74,1.897 0.516,3.851 0.185,5.79 -0.08,0.466 -0.239,0.918 -0.338,1.376 -0.268,1.254 -0.777,2.383 -1.411,3.447 L 66.723,244.043 Z"
           style="fill:#fe9400;fill-opacity:1;fill-rule:nonzero;stroke:none"
           id="path25648" /><path
           d="m 37.826,187.477 c 0.911,-1.418 1.492,-1.27 2.189,-1.954 0.4,-0.392 0.817,-0.525 1.36,-0.513 4.258,0.105 8.539,0.068 12.625,1.535 1.401,0.5 2.756,1.133 4.114,1.752 0.648,0.291 1.218,0.215 1.748,-0.186 1.829,-1.384 4.04,-1.711 6.183,-2.195 1.256,-0.285 2.097,0.6 2.863,1.365 0.675,0.67 1.326,1.365 1.971,2.065 l -33.327,0.181 c 0.073,-1.15 0.164,-1.879 0.274,-2.05"
           style="fill:#fb9b00;fill-opacity:1;fill-rule:nonzero;stroke:none"
           id="path25650" /><path
           d="m 101.858,189.176 c 0.165,-0.418 0.329,-0.838 0.496,-1.254 0.637,-1.586 1.347,-3.137 2.112,-4.658 l 1.524,5.888 z"
           style="fill:#fb9b00;fill-opacity:1;fill-rule:nonzero;stroke:none"
           id="path25652" /><path
           d="m 59.412,233.505 c 0.009,-0.066 0.021,-0.133 0.035,-0.198 0.074,-0.344 0.053,-0.712 0.105,-1.063 0.128,-0.838 -0.02,-1.554 -0.578,-2.249 -1.268,-1.584 -2.455,-3.229 -3.691,-4.838 -0.169,-0.219 -0.342,-0.591 -0.681,-0.477 -0.269,0.094 -0.175,0.467 -0.243,0.717 -0.054,0.198 -0.107,0.396 -0.16,0.595 L 37.323,201.668 c -0.002,-5.141 0.071,-9.639 0.229,-12.141 l 33.327,-0.181 c 1.358,1.47 2.693,2.967 4.172,4.32 4.05,3.707 8.079,7.427 12.911,10.152 1.78,1.005 3.34,2.353 4.949,3.617 l -26.188,36.608 z"
           style="fill:#ffa300;fill-opacity:1;fill-rule:nonzero;stroke:none"
           id="path25654" /><path
           d="m 97.28,201.328 c 0.101,-0.253 0.201,-0.508 0.298,-0.763 1.436,-3.792 2.799,-7.614 4.28,-11.389 l 4.132,-0.024 z"
           style="fill:#ffa300;fill-opacity:1;fill-rule:nonzero;stroke:none"
           id="path25656" /><path
           d="m 84.348,284.148 c -0.468,0.785 -1.003,1.533 -1.56,2.267 -0.845,1.112 -2.193,1.623 -3.297,2.425 -3.189,2.333 -6.546,4.388 -10.297,5.714 -1.168,0.411 -1.519,0.327 -2.042,-0.834 -0.774,-1.709 -1.43,-3.482 -2.755,-4.882 -1.984,-2.096 -3.736,-4.404 -5.847,-6.395 -0.937,-0.883 -1.846,-1.978 -1.524,-3.451 0.417,-1.905 -0.791,-3.167 -1.873,-4.285 -1.157,-1.197 -1.165,-2.618 -1.409,-4.007 -0.164,-0.929 -0.03,-1.909 -0.034,-2.865 -10e-4,-0.709 -0.069,-1.32 -0.498,-2.002 -0.537,-0.854 -0.259,-1.98 -0.155,-2.981 0.158,-1.521 0.52,-3.001 0.883,-4.48 l 12.783,-14.329 z"
           style="fill:#fd7700;fill-opacity:1;fill-rule:nonzero;stroke:none"
           id="path25658" /><path
           d="m 57.068,243.041 c 0.319,-1.475 0.63,-2.949 0.911,-4.431 0.133,-0.691 0.383,-1.289 0.837,-1.845 0.781,-0.96 0.431,-2.161 0.596,-3.26 l 7.311,10.538 z"
           style="fill:#ff8800;fill-opacity:1;fill-rule:nonzero;stroke:none"
           id="path25660" /><path
           d="m 53.054,231.41 c -0.221,1.797 -0.171,3.568 -0.096,5.383 0.093,2.272 1.088,4.102 1.928,6.021 l -6.629,-0.688 c -1.57,-2.233 -3.298,-4.342 -5.084,-6.393 -1.488,-1.71 -3.703,-2.875 -4.723,-4.9 -0.704,-1.397 -1.123,-17.054 -1.127,-29.165 l 16.876,24.324 c -0.478,1.787 -0.92,3.575 -1.145,5.418"
           style="fill:#ff8800;fill-opacity:1;fill-rule:nonzero;stroke:none"
           id="path25662" /><path
           d="m 55.229,243.632 c 0.278,0.703 0.487,1.408 0.441,2.173 -0.027,0.469 -0.255,0.813 -0.659,0.99 -0.395,0.174 -0.741,0.014 -1.045,-0.295 -0.424,-0.432 -0.928,-0.817 -1.517,-0.915 -1.979,-0.333 -3.043,-1.814 -4.057,-3.27 -0.045,-0.063 -0.091,-0.126 -0.135,-0.189 l 6.629,0.688 c 0.119,0.271 0.234,0.543 0.343,0.818"
           style="fill:#fd7400;fill-opacity:1;fill-rule:nonzero;stroke:none"
           id="path25664" /><path
           d="m 53.94,258.372 c 0.298,-1.213 0.598,-2.424 0.787,-3.657 0.603,-3.928 1.502,-7.795 2.341,-11.674 l 9.655,1.002 z"
           style="fill:#fd7400;fill-opacity:1;fill-rule:nonzero;stroke:none"
           id="path25666" /></g></g></g></svg>
